# Made in Blockbench 4.9.3
mtllib player_right_hand.material

o right_hand
v -0.3125 0.46875 -1.734723475976807e-18
v -0.3125 0.53125 -1.734723475976807e-18
v -0.3083132938682637 0.5270632938682638 0.015624999999999995
v -0.3052484122634726 0.515625 0.027063293868263703
v -0.30412658773652745 0.5 0.031249999999999997
v -0.3052484122634726 0.484375 0.02706329386826371
v -0.3083132938682637 0.4729367061317362 0.015624999999999995
v -0.30106170613173633 0.5270632938682638 0.011438293868263703
v -0.2926882938682637 0.515625 0.01981170613173629
v -0.2896234122634726 0.5 0.022876587736527416
v -0.2926882938682637 0.484375 0.01981170613173629
v -0.30106170613173633 0.4729367061317362 0.011438293868263703
v -0.296875 0.5270632938682638 0.004186706131736289
v -0.28543670613173633 0.515625 0.007251587736527412
v -0.28125 0.5 0.00837341226347258
v -0.2854367061317363 0.484375 0.007251587736527413
v -0.296875 0.4729367061317362 0.004186706131736289
v -0.296875 0.5270632938682638 -0.004186706131736294
v -0.28543670613173633 0.515625 -0.007251587736527419
v -0.28125 0.5 -0.008373412263472588
v -0.2854367061317363 0.484375 -0.00725158773652742
v -0.296875 0.4729367061317362 -0.004186706131736294
v -0.30106170613173633 0.5270632938682638 -0.011438293868263704
v -0.2926882938682637 0.515625 -0.01981170613173629
v -0.2896234122634726 0.5 -0.022876587736527416
v -0.29268829386826367 0.484375 -0.01981170613173629
v -0.30106170613173633 0.4729367061317362 -0.011438293868263704
v -0.30831329386826367 0.5270632938682638 -0.015624999999999995
v -0.30524841226347255 0.515625 -0.027063293868263703
v -0.3041265877365274 0.5 -0.031249999999999997
v -0.30524841226347255 0.484375 -0.02706329386826371
v -0.30831329386826367 0.4729367061317362 -0.015624999999999995
v -0.3166867061317363 0.5270632938682638 -0.015625
v -0.3197515877365274 0.515625 -0.02706329386826371
v -0.32087341226347255 0.5 -0.03125
v -0.3197515877365274 0.484375 -0.027063293868263717
v -0.3166867061317363 0.4729367061317362 -0.015625
v -0.32393829386826367 0.5270632938682638 -0.011438293868263708
v -0.3323117061317363 0.515625 -0.019811706131736297
v -0.3353765877365274 0.5 -0.022876587736527423
v -0.3323117061317363 0.484375 -0.019811706131736297
v -0.32393829386826367 0.4729367061317362 -0.011438293868263708
v -0.328125 0.5270632938682638 -0.00418670613173629
v -0.33956329386826367 0.515625 -0.007251587736527413
v -0.34375 0.5 -0.00837341226347258
v -0.3395632938682637 0.484375 -0.007251587736527414
v -0.328125 0.4729367061317362 -0.00418670613173629
v -0.328125 0.5270632938682638 0.004186706131736282
v -0.3395632938682637 0.515625 0.0072515877365274
v -0.34375 0.5 0.008373412263472567
v -0.3395632938682637 0.484375 0.007251587736527401
v -0.328125 0.4729367061317362 0.004186706131736282
v -0.32393829386826367 0.5270632938682638 0.0114382938682637
v -0.33231170613173633 0.515625 0.019811706131736283
v -0.33537658773652745 0.5 0.02287658773652741
v -0.33231170613173633 0.484375 0.019811706131736283
v -0.32393829386826367 0.4729367061317362 0.0114382938682637
v -0.3166867061317363 0.5270632938682638 0.015624999999999995
v -0.3197515877365274 0.515625 0.027063293868263703
v -0.32087341226347255 0.5 0.031249999999999997
v -0.3197515877365274 0.484375 0.02706329386826371
v -0.3166867061317363 0.4729367061317362 0.015624999999999995
vt 0.06664630283194065 0.842302172127088
vt 0.0744407044873718 0.8453661446847022
vt 0.06462592083942834 0.8588878236926532
vt 0.06664630283194065 0.842302172127088
vt 0.06970787728439495 0.8261258124180998
vt 0.08320847895772002 0.8314328872734897
vt 0.0744407044873718 0.8453661446847022
vt 0.16796688901300444 0.7215549923969775
vt 0.1646254026125058 0.7056830384605435
vt 0.18120888995337958 0.703371953936434
vt 0.1823342925658854 0.7195527426095725
vt 0.1646254026125058 0.7056830384605435
vt 0.16349999999999998 0.689502249787405
vt 0.17786740355288094 0.6875
vt 0.18120888995337958 0.703371953936434
vt 0.0718939726788595 0.9858255464651642
vt 0.06672973110188046 0.9701929375819003
vt 0.07405299921936304 0.9661296422345913
vt 0.08457852887339457 0.9787875550464297
vt 0.07405299921936304 0.9661296422345913
vt 0.06672973110188046 0.9701929375819003
vt 0.06254374698238607 0.954017545215675
vt 0.07444070448737175 0.8453661446847023
vt 0.08057553561419759 0.8510674140210281
vt 0.06649701181017922 0.8600652442455705
vt 0.07444070448737175 0.8453661446847023
vt 0.08320847895772002 0.8314328872734896
vt 0.0938299776250602 0.8413037416468299
vt 0.08057553561419759 0.8510674140210281
vt 0.005161274409581772 0.735927447668359
vt 0.006286274409581738 0.719752447668359
vt 0.022875000000000003 0.7220712152905674
vt 0.019521663726660296 0.7379347390428079
vt 0.0062862744095817345 0.719752447668359
vt 0.009639610682921473 0.7038889239161183
vt 0.023999999999999994 0.7058962152905673
vt 0.022875 0.7220712152905674
vt 0.08615753554429967 0.9772871388896789
vt 0.07405299921936304 0.9661296422345913
vt 0.07848455854084069 0.9590231728594216
vt 0.09383008601133563 0.964983400866997
vt 0.07848455854084069 0.9590231728594216
vt 0.07405299921936304 0.9661296422345913
vt 0.06254374698238607 0.954017545215675
vt 0.08057553561419759 0.8510674140210281
vt 0.08317312641640454 0.859029395371439
vt 0.06649701181017922 0.8600652442455705
vt 0.33281430574829873 0.9969383846047849
vt 0.32975180574829877 0.980763384604785
vt 0.3442518057482987 0.980763384604785
vt 0.34118930574829875 0.9969383846047849
vt 0.029034090571538003 0.7419106680924497
vt 0.02351699203412558 0.726664098847912
vt 0.039624999999999994 0.7220712152905674
vt 0.04297833627333973 0.7379347390428082
vt 0.022875 0.7220712152905674
vt 0.024 0.7058962152905673
vt 0.0385 0.7058962152905673
vt 0.039625 0.7220712152905674
vt 0.024399761570506814 0.7025149024935249
vt 0.031149741893436833 0.6875
vt 0.0392938451242648 0.6894529996327745
vt 0.038500000000000006 0.7058962152905673
vt 0.07891097625538213 0.9506590355498883
vt 0.07848455854084069 0.9590231728594216
vt 0.06254374698238607 0.954017545215675
vt 0.08317312641640454 0.859029395371439
vt 0.08158083013497638 0.8672516345769201
vt 0.06649701181017928 0.8600652442455705
vt 0.34118930574829875 0.996938384604785
vt 0.3442518057482987 0.980763384604785
vt 0.35774819425170123 0.986064091856202
vt 0.34898463359078125 1
vt 0.042978336273339704 0.7379347390428079
vt 0.039624999999999994 0.7220712152905674
vt 0.056213725590418255 0.719752447668359
vt 0.05733872559041823 0.735927447668359
vt 0.039625 0.7220712152905674
vt 0.038500000000000006 0.7058962152905673
vt 0.05286038931707853 0.7038889239161183
vt 0.05621372559041827 0.719752447668359
vt 0.038500000000000006 0.7058962152905673
vt 0.0392938451242648 0.6894529996327745
vt 0.047588207919473956 0.6882936158216704
vt 0.052860389317078524 0.7038889239161183
vt 0.0752251145724061 0.9431387264702049
vt 0.07891097625538213 0.9506590355498884
vt 0.06254374698238607 0.954017545215675
vt 0.07267716830874607 0.8717025411403065
vt 0.0649786366261049 0.875
vt 0.06245937744586835 0.8584827631114405
vt 0.2023987682068527 0.999194929707809
vt 0.19713299905962484 0.98359745534373
vt 0.2115004026125058 0.981595205556325
vt 0.21069360696637895 0.9980389561123231
vt 0.19713299905962484 0.98359745534373
vt 0.1937915126591262 0.967725501407296
vt 0.21037499999999998 0.9654144168831864
vt 0.2115004026125058 0.981595205556325
vt 0.1937915126591262 0.967725501407296
vt 0.19266611004662038 0.9515447127341574
vt 0.20703351359950134 0.9495424629467524
vt 0.21037499999999998 0.9654144168831864
vt 0.2604994427878203 0.7014332574112125
vt 0.26926721725816855 0.6875
vt 0.2770616189135997 0.6905639725576141
vt 0.2740000444611454 0.7067403322666025
vt 0.06835304917694063 0.938351729269407
vt 0.07522511457240605 0.9431387264702049
vt 0.06254374698238607 0.954017545215675
vt 0.06497863662610495 0.875
vt 0.056647059209334744 0.874148270730593
vt 0.06245846514047712 0.858476781684686
vt 0.21865706381259198 1
vt 0.21190051123428377 0.9849813197960322
vt 0.2259995973874942 0.981595205556325
vt 0.22680050150453251 0.998044227120169
vt 0.21150000000000002 0.9815894168831865
vt 0.21037499999999998 0.9654144168831864
vt 0.22712500000000002 0.9654144168831864
vt 0.22599999999999998 0.9815894168831865
vt 0.2110144162892264 0.9608291018789655
vt 0.21651897611170895 0.9455780012248911
vt 0.23046648640049866 0.9495424629467524
vt 0.22712619541593182 0.9654087386955985
vt 0.27399911891359974 0.7067452225576141
vt 0.2770616189135997 0.6905639725576141
vt 0.2854366189135997 0.6905639725576141
vt 0.2884991189135997 0.7067452225576141
vt 0.060021471760170475 0.9375
vt 0.06835304917694068 0.938351729269407
vt 0.0625416432457983 0.954023218315314
vt 0.0566470592093348 0.874148270730593
vt 0.04977499381386938 0.8693612735297951
vt 0.062456361403889354 0.858482454784325
vt 0.22680020285544222 0.9980380934454608
vt 0.2259995973874942 0.981595205556325
vt 0.24036700094037516 0.98359745534373
vt 0.23509504161496853 0.9991940670409467
vt 0.2259995973874942 0.981595205556325
vt 0.22712500000000002 0.9654144168831864
vt 0.2437084873408738 0.967725501407296
vt 0.24036700094037516 0.98359745534373
vt 0.22712500000000002 0.9654144168831864
vt 0.23046648640049866 0.9495424629467524
vt 0.24483388995337962 0.9515447127341574
vt 0.2437084873408738 0.967725501407296
vt 0.2884979769381502 0.706739188732229
vt 0.2854366189135997 0.6905639725576141
vt 0.29323216288912735 0.6875029075263521
vt 0.3020005572121797 0.7014371499728564
vt 0.052322940077529356 0.9407974588596935
vt 0.06002147176017053 0.9375
vt 0.06254073094040707 0.9540172368885595
vt 0.04977499381386932 0.8693612735297951
vt 0.0460891321308933 0.8618409644501117
vt 0.062456361403889354 0.858482454784325
vt 0.33851536640921875 0.875
vt 0.32975180574829877 0.861064091856202
vt 0.3432481942517013 0.855763384604785
vt 0.34631069425170125 0.871938384604785
vt 0.1926612744095817 0.860927447668359
vt 0.19378627440958174 0.844752447668359
vt 0.210375 0.8470712152905674
vt 0.20702166372666023 0.8629347390428082
vt 0.19378627440958174 0.844752447668359
vt 0.1971396106829215 0.8288889239161185
vt 0.2115 0.8308962152905675
vt 0.210375 0.8470712152905674
vt 0.1971396106829215 0.8288889239161185
vt 0.202411792080526 0.8132936158216705
vt 0.21070615487573519 0.8144529996327746
vt 0.21150000000000002 0.8308962152905675
vt 0.04182676519731998 0.9534686218639017
vt 0.04341906147874808 0.9452463826584205
vt 0.05850287980354524 0.95243277298977
vt 0.0460891321308933 0.8618409644501117
vt 0.04651554984543474 0.8534768271405784
vt 0.062456361403889354 0.858482454784325
vt 0.34631069425170125 0.871938384604785
vt 0.3432481942517013 0.855763384604785
vt 0.35774819425170123 0.855763384604785
vt 0.35468569425170127 0.871938384604785
vt 0.21653409057153805 0.8669106680924498
vt 0.2110169920341256 0.851664098847912
vt 0.227125 0.8470712152905674
vt 0.23047833627333977 0.8629347390428082
vt 0.210375 0.8470712152905675
vt 0.2115 0.8308962152905675
vt 0.226 0.8308962152905675
vt 0.22712500000000002 0.8470712152905675
vt 0.21150000000000002 0.8308962152905673
vt 0.21070615487573519 0.8144529996327746
vt 0.2188502581065631 0.8125
vt 0.22560023842949317 0.8275149024935248
vt 0.04442435599952699 0.9614306032143125
vt 0.04182676519731998 0.9534686218639017
vt 0.058502879803545293 0.95243277298977
vt 0.04651554984543474 0.8534768271405785
vt 0.05094710916691239 0.8463703577654087
vt 0.062456361403889354 0.858482454784325
vt 0.04651554984543474 0.8534768271405785
vt 0.031170022374939793 0.8475165991330031
vt 0.03884257284197576 0.8352128611103212
vt 0.05094710916691239 0.8463703577654087
vt 0.23047833627333977 0.8629347390428082
vt 0.227125 0.8470712152905674
vt 0.24371372559041826 0.844752447668359
vt 0.2448387255904183 0.860927447668359
vt 0.227125 0.8470712152905674
vt 0.226 0.8308962152905675
vt 0.24036038931707854 0.8288889239161185
vt 0.24371372559041826 0.844752447668359
vt 0.031169913988664366 0.9711942755885107
vt 0.04442435599952699 0.9614306032143125
vt 0.05055918712635282 0.9671318725506383
vt 0.041791412656004556 0.9810651299618509
vt 0.05055918712635282 0.9671318725506383
vt 0.04442435599952699 0.9614306032143125
vt 0.058502879803545293 0.95243277298977
vt 0.05094710916691239 0.8463703577654088
vt 0.058270377284394964 0.8423070624180997
vt 0.062456361403889354 0.858482454784325
vt 0.05094710916691239 0.8463703577654088
vt 0.040416114387420016 0.8337154772635311
vt 0.053100670581955084 0.8266774858447965
vt 0.058270377284394964 0.8423070624180997
vt 0.1301657074341146 0.7195527426095725
vt 0.13129111004662042 0.703371953936434
vt 0.1478745973874942 0.7056830384605435
vt 0.14453311098699556 0.7215549923969775
vt 0.13129111004662042 0.703371953936434
vt 0.13463259644711906 0.6875
vt 0.14900000000000002 0.689502249787405
vt 0.1478745973874942 0.7056830384605435
vt 0.04179079280330045 0.9810661149971426
vt 0.05055918712635282 0.9671318725506383
vt 0.05835473110188044 0.9701929375819003
vt 0.055293373077329955 0.9863681537565151
vt 0.05835473110188044 0.9701929375819003
vt 0.05055918712635282 0.9671318725506383
vt 0.06036892650285253 0.9536065335672652
vt 0.058270377284394964 0.8423070624180997
vt 0.06664537728439499 0.8423070624180997
vt 0.062457877284394975 0.8584883124180998
vt 0.058270377284394964 0.8423070624180997
vt 0.055207877284394996 0.8261258124180997
vt 0.06970787728439495 0.8261258124180997
vt 0.06664537728439499 0.8423070624180997
vt 0.15401818330828293 0.7255137759312509
vt 0.14851362348580038 0.7102626752771766
vt 0.1646254026125058 0.7056830384605435
vt 0.16796569359707264 0.7215493142093896
vt 0.14787499999999998 0.7056772497874051
vt 0.14900000000000002 0.689502249787405
vt 0.16349999999999998 0.689502249787405
vt 0.16462500000000002 0.7056772497874051
vt 0.055292231101880474 0.9863741875819003
vt 0.05835473110188044 0.9701929375819003
vt 0.06672973110188046 0.9701929375819003
vt 0.06979223110188043 0.9863741875819003
vt 0.06672973110188046 0.9701929375819003
vt 0.05835473110188044 0.9701929375819003
vt 0.06254223110188045 0.9540116875819002
vn 0.1294095225512586 0.9659258262890694 0.22414386804200978
vn 0.3535533905932748 0.7071067811865452 0.6123724356957965
vn 0.4829629131445336 0.25881904510252035 0.8365163037378086
vn 0.48296291314453454 -0.25881904510251985 0.836516303737808
vn 0.3535533905932754 -0.7071067811865454 0.612372435695796
vn 0.1294095225512586 -0.9659258262890694 0.22414386804200978
vn 0.22414386804200945 0.9659258262890695 0.12940952255125926
vn 0.6123724356957966 0.7071067811865456 0.35355339059327406
vn 0.8365163037378075 0.258819045102521 0.48296291314453477
vn 0.8365163037378069 -0.2588190451025212 0.4829629131445361
vn 0.6123724356957944 -0.7071067811865461 0.35355339059327684
vn 0.22414386804200934 -0.9659258262890693 0.1294095225512592
vn 0.25881904510251647 0.9659258262890695 0
vn 0.707106781186551 0.7071067811865441 0
vn 0.9659258262890678 0.25881904510252285 0
vn 0.9659258262890685 -0.25881904510251963 0
vn 0.7071067811865492 -0.7071067811865459 0
vn 0.25881904510251647 -0.9659258262890695 0
vn 0.2241438680420094 0.9659258262890695 -0.1294095225512593
vn 0.6123724356957976 0.7071067811865444 -0.3535533905932748
vn 0.8365163037378072 0.2588190451025225 -0.48296291314453477
vn 0.8365163037378086 -0.2588190451025198 -0.4829629131445336
vn 0.612372435695795 -0.7071067811865455 -0.35355339059327723
vn 0.2241438680420094 -0.9659258262890695 -0.1294095225512593
vn 0.12940952255125918 0.9659258262890694 -0.22414386804200917
vn 0.3535533905932758 0.7071067811865457 -0.6123724356957955
vn 0.4829629131445348 0.258819045102521 -0.8365163037378075
vn 0.4829629131445346 -0.25881904510251935 -0.8365163037378082
vn 0.3535533905932767 -0.7071067811865468 -0.6123724356957938
vn 0.12940952255125918 -0.9659258262890694 -0.22414386804200917
vn 1.6085896386392747e-16 0.9659258262890695 -0.2588190451025165
vn 3.4660289604073785e-16 0.7071067811865452 -0.7071067811865498
vn 2.0011127533102507e-16 0.2588190451025209 -0.9659258262890683
vn 4.621371947209853e-16 -0.2588190451025205 -0.9659258262890683
vn 4.0022255066204743e-16 -0.7071067811865455 -0.7071067811865497
vn 1.6085896386392752e-16 -0.9659258262890695 -0.2588190451025166
vn -0.12940952255125857 0.9659258262890694 -0.22414386804200973
vn -0.35355339059327484 0.7071067811865454 -0.6123724356957965
vn -0.4829629131445334 0.25881904510252013 -0.8365163037378085
vn -0.48296291314453454 -0.2588190451025197 -0.836516303737808
vn -0.3535533905932754 -0.7071067811865455 -0.612372435695796
vn -0.12940952255125857 -0.9659258262890694 -0.22414386804200973
vn -0.22414386804200948 0.9659258262890695 -0.1294095225512592
vn -0.6123724356957967 0.7071067811865457 -0.353553390593274
vn -0.8365163037378076 0.258819045102521 -0.4829629131445346
vn -0.8365163037378069 -0.2588190451025211 -0.482962913144536
vn -0.6123724356957946 -0.7071067811865461 -0.3535533905932767
vn -0.22414386804200948 -0.9659258262890695 -0.1294095225512592
vn -0.25881904510251647 0.9659258262890694 0
vn -0.7071067811865506 0.7071067811865446 -2.772823168325914e-15
vn -0.9659258262890678 0.25881904510252285 0
vn -0.9659258262890686 -0.2588190451025197 0
vn -0.7071067811865493 -0.7071067811865458 0
vn -0.25881904510251647 -0.9659258262890694 0
vn -0.22414386804200948 0.9659258262890695 0.1294095225512592
vn -0.6123724356957965 0.7071067811865458 0.35355339059327395
vn -0.8365163037378092 0.2588190451025199 0.4829629131445323
vn -0.8365163037378087 -0.2588190451025198 0.48296291314453327
vn -0.6123724356957951 -0.7071067811865454 0.353553390593277
vn -0.22414386804200948 -0.9659258262890695 0.1294095225512592
vn -0.12940952255125868 0.9659258262890694 0.22414386804200973
vn -0.3535533905932734 0.7071067811865462 0.6123724356957962
vn -0.4829629131445323 0.2588190451025208 0.8365163037378089
vn -0.4829629131445332 -0.2588190451025209 0.8365163037378086
vn -0.3535533905932752 -0.7071067811865465 0.612372435695795
vn -0.12940952255125868 -0.9659258262890694 0.22414386804200973
vn 0 0.9659258262890695 0.2588190451025165
vn 0 0.7071067811865454 0.7071067811865498
vn 0 0.25881904510252085 0.9659258262890684
vn 0 -0.2588190451025205 0.9659258262890685
vn 0 -0.7071067811865455 0.7071067811865496
vn 0 -0.9659258262890695 0.2588190451025165
usemtl m_2696c9cd-b005-6468-6647-3bddef13af49
f 3/1/1 8/2/1 2/3/1
f 3/4/2 4/5/2 9/6/2 8/7/2
f 4/8/3 5/9/3 10/10/3 9/11/3
f 5/12/4 6/13/4 11/14/4 10/15/4
f 6/16/5 7/17/5 12/18/5 11/19/5
f 12/20/6 7/21/6 1/22/6
f 8/23/7 13/24/7 2/25/7
f 8/26/8 9/27/8 14/28/8 13/29/8
f 9/30/9 10/31/9 15/32/9 14/33/9
f 10/34/10 11/35/10 16/36/10 15/37/10
f 11/38/11 12/39/11 17/40/11 16/41/11
f 17/42/12 12/43/12 1/44/12
f 13/45/13 18/46/13 2/47/13
f 13/48/14 14/49/14 19/50/14 18/51/14
f 14/52/15 15/53/15 20/54/15 19/55/15
f 15/56/16 16/57/16 21/58/16 20/59/16
f 16/60/17 17/61/17 22/62/17 21/63/17
f 22/64/18 17/65/18 1/66/18
f 18/67/19 23/68/19 2/69/19
f 18/70/20 19/71/20 24/72/20 23/73/20
f 19/74/21 20/75/21 25/76/21 24/77/21
f 20/78/22 21/79/22 26/80/22 25/81/22
f 21/82/23 22/83/23 27/84/23 26/85/23
f 27/86/24 22/87/24 1/88/24
f 23/89/25 28/90/25 2/91/25
f 23/92/26 24/93/26 29/94/26 28/95/26
f 24/96/27 25/97/27 30/98/27 29/99/27
f 25/100/28 26/101/28 31/102/28 30/103/28
f 26/104/29 27/105/29 32/106/29 31/107/29
f 32/108/30 27/109/30 1/110/30
f 28/111/31 33/112/31 2/113/31
f 28/114/32 29/115/32 34/116/32 33/117/32
f 29/118/33 30/119/33 35/120/33 34/121/33
f 30/122/34 31/123/34 36/124/34 35/125/34
f 31/126/35 32/127/35 37/128/35 36/129/35
f 37/130/36 32/131/36 1/132/36
f 33/133/37 38/134/37 2/135/37
f 33/136/38 34/137/38 39/138/38 38/139/38
f 34/140/39 35/141/39 40/142/39 39/143/39
f 35/144/40 36/145/40 41/146/40 40/147/40
f 36/148/41 37/149/41 42/150/41 41/151/41
f 42/152/42 37/153/42 1/154/42
f 38/155/43 43/156/43 2/157/43
f 38/158/44 39/159/44 44/160/44 43/161/44
f 39/162/45 40/163/45 45/164/45 44/165/45
f 40/166/46 41/167/46 46/168/46 45/169/46
f 41/170/47 42/171/47 47/172/47 46/173/47
f 47/174/48 42/175/48 1/176/48
f 43/177/49 48/178/49 2/179/49
f 43/180/50 44/181/50 49/182/50 48/183/50
f 44/184/51 45/185/51 50/186/51 49/187/51
f 45/188/52 46/189/52 51/190/52 50/191/52
f 46/192/53 47/193/53 52/194/53 51/195/53
f 52/196/54 47/197/54 1/198/54
f 48/199/55 53/200/55 2/201/55
f 48/202/56 49/203/56 54/204/56 53/205/56
f 49/206/57 50/207/57 55/208/57 54/209/57
f 50/210/58 51/211/58 56/212/58 55/213/58
f 51/214/59 52/215/59 57/216/59 56/217/59
f 57/218/60 52/219/60 1/220/60
f 53/221/61 58/222/61 2/223/61
f 53/224/62 54/225/62 59/226/62 58/227/62
f 54/228/63 55/229/63 60/230/63 59/231/63
f 55/232/64 56/233/64 61/234/64 60/235/64
f 56/236/65 57/237/65 62/238/65 61/239/65
f 62/240/66 57/241/66 1/242/66
f 58/243/67 3/244/67 2/245/67
f 58/246/68 59/247/68 4/248/68 3/249/68
f 59/250/69 60/251/69 5/252/69 4/253/69
f 60/254/70 61/255/70 6/256/70 5/257/70
f 61/258/71 62/259/71 7/260/71 6/261/71
f 7/262/72 62/263/72 1/264/72