# Made in Blockbench 4.9.3
mtllib player_head_2.material

o head
v 0 0.71875 0
v 0 1.03125 0
v 0.020933530658681455 1.0103164693413187 0.07812499999999999
v 0.03625793868263706 0.953125 0.1353164693413185
v 0.04186706131736292 0.875 0.15625
v 0.03625793868263707 0.796875 0.13531646934131852
v 0.020933530658681455 0.7396835306586814 0.07812499999999999
v 0.05719146934131852 1.0103164693413187 0.05719146934131853
v 0.09905853065868142 0.953125 0.09905853065868143
v 0.11438293868263706 0.875 0.11438293868263708
v 0.09905853065868145 0.796875 0.09905853065868146
v 0.05719146934131852 0.7396835306586814 0.05719146934131853
v 0.07812499999999999 1.0103164693413187 0.020933530658681455
v 0.1353164693413185 0.953125 0.03625793868263706
v 0.15625 0.875 0.04186706131736292
v 0.13531646934131852 0.796875 0.03625793868263707
v 0.07812499999999999 0.7396835306586814 0.020933530658681455
v 0.07812499999999999 1.0103164693413187 -0.020933530658681462
v 0.1353164693413185 0.953125 -0.03625793868263708
v 0.15625 0.875 -0.04186706131736293
v 0.13531646934131852 0.796875 -0.03625793868263709
v 0.07812499999999999 0.7396835306586814 -0.020933530658681462
v 0.05719146934131853 1.0103164693413187 -0.05719146934131852
v 0.09905853065868143 0.953125 -0.09905853065868142
v 0.11438293868263708 0.875 -0.11438293868263706
v 0.09905853065868146 0.796875 -0.09905853065868145
v 0.05719146934131853 0.7396835306586814 -0.05719146934131852
v 0.020933530658681476 1.0103164693413187 -0.07812499999999997
v 0.0362579386826371 0.953125 -0.1353164693413185
v 0.04186706131736296 0.875 -0.15624999999999997
v 0.03625793868263711 0.796875 -0.13531646934131852
v 0.020933530658681476 0.7396835306586814 -0.07812499999999997
v -0.020933530658681424 1.0103164693413187 -0.07812499999999999
v -0.036257938682637006 0.953125 -0.13531646934131852
v -0.041867061317362855 0.875 -0.15625
v -0.03625793868263701 0.796875 -0.13531646934131855
v -0.020933530658681424 0.7396835306586814 -0.07812499999999999
v -0.05719146934131852 1.0103164693413187 -0.05719146934131854
v -0.09905853065868142 0.953125 -0.09905853065868145
v -0.11438293868263706 0.875 -0.11438293868263709
v -0.09905853065868145 0.796875 -0.09905853065868148
v -0.05719146934131852 0.7396835306586814 -0.05719146934131854
v -0.07812499999999999 1.0103164693413187 -0.020933530658681445
v -0.1353164693413185 0.953125 -0.03625793868263705
v -0.15625 0.875 -0.0418670613173629
v -0.13531646934131852 0.796875 -0.036257938682637054
v -0.07812499999999999 0.7396835306586814 -0.020933530658681445
v -0.07812499999999999 1.0103164693413187 0.020933530658681417
v -0.13531646934131852 0.953125 0.036257938682637
v -0.15625 0.875 0.04186706131736284
v -0.13531646934131855 0.796875 0.036257938682637006
v -0.07812499999999999 0.7396835306586814 0.020933530658681417
v -0.05719146934131854 1.0103164693413187 0.05719146934131851
v -0.09905853065868145 0.953125 0.0990585306586814
v -0.11438293868263709 0.875 0.11438293868263703
v -0.09905853065868148 0.796875 0.09905853065868143
v -0.05719146934131854 0.7396835306586814 0.05719146934131851
v -0.02093353065868145 1.0103164693413187 0.07812499999999999
v -0.036257938682637054 0.953125 0.1353164693413185
v -0.041867061317362904 0.875 0.15625
v -0.03625793868263706 0.796875 0.13531646934131852
v -0.02093353065868145 0.7396835306586814 0.07812499999999999
vt 0.10411141911120371 0.9182583887768273
vt 0.12359185353307255 0.9259154052517846
vt 0.09905775005721988 0.959724445812963
vt 0.10411141911120371 0.9182583887768273
vt 0.1117739191112037 0.8778177637768273
vt 0.145517126062909 0.8910809326544706
vt 0.12359185353307255 0.9259154052517846
vt 0.4824243330683753 0.835113723005119
vt 0.474059375 0.7954482888594117
vt 0.5155268419822343 0.7896654341457074
vt 0.5183330919822342 0.8301060591457075
vt 0.474059375 0.7954482888594117
vt 0.471253125 0.7550076638594116
vt 0.507161883913859 0.75
vt 0.5155268419822343 0.7896654341457074
vt 0.11723668517778722 0.8395724624410978
vt 0.10431983088879632 0.8004916112231727
vt 0.12262343599209743 0.790338027285227
vt 0.14894143680640765 0.8219848421293561
vt 0.12262343599209743 0.790338027285227
vt 0.10431983088879632 0.8004916112231727
vt 0.0938542058887963 0.7600509862231727
vt 0.12359185353307255 0.9259154052517846
vt 0.13892096306866958 0.9401679708947897
vt 0.10371946414050547 0.9626585896110836
vt 0.12359185353307255 0.9259154052517846
vt 0.145517126062909 0.8910809326544706
vt 0.17206957885956425 0.9157686404165107
vt 0.13892096306866958 0.9401679708947897
vt 0.012916908017765752 0.652352777122591
vt 0.01572315801776572 0.611912152122591
vt 0.057190625 0.6176950068362952
vt 0.04882566693162467 0.6573604409820025
vt 0.01572315801776572 0.611912152122591
vt 0.02408811608614106 0.5722467179768835
vt 0.05999687499999999 0.5772543818362952
vt 0.05719062499999998 0.6176950068362952
vt 0.1528765600668728 0.8182469244393045
vt 0.12262343599209742 0.790338027285227
vt 0.1337038393599174 0.7725801589511925
vt 0.17206957885956423 0.7874874755871892
vt 0.1337038393599174 0.7725801589511925
vt 0.12262343599209743 0.790338027285227
vt 0.09385420588879631 0.7600509862231727
vt 0.13892096306866958 0.9401679708947897
vt 0.14541189628754003 0.9600673430585205
vt 0.10371946414050548 0.9626585896110836
vt 0.427034375 1
vt 0.419371875 0.96875
vt 0.455628125 0.96875
vt 0.447965625 1
vt 0.07255138648937759 0.6672797787099394
vt 0.05878806503056269 0.6291498669361828
vt 0.09905937499999999 0.6176950068362952
vt 0.1074243330683753 0.6573604409820025
vt 0.05719062499999998 0.6176950068362952
vt 0.05999687499999999 0.5772543818362952
vt 0.09625312499999998 0.5772543818362952
vt 0.09905937499999999 0.6176950068362952
vt 0.06100143253707063 0.5687788970382703
vt 0.07790527658898773 0.53125
vt 0.09825658120170112 0.5361430182017902
vt 0.09625312499999998 0.5772543818362952
vt 0.13477904131590462 0.7516765428210503
vt 0.1337038393599174 0.7725801589511925
vt 0.0938542058887963 0.7600509862231727
vt 0.14541189628754003 0.9600673430585205
vt 0.14143494951241875 0.9806173095040005
vt 0.10371946414050547 0.9626585896110836
vt 0.42112605744086173 0.71875
vt 0.38797744164996706 0.694350669521721
vt 0.41452989444662225 0.6696629617596809
vt 0.43645516697645875 0.704497434356995
vt 0.10742433306837532 0.6573604409820025
vt 0.09905937499999999 0.6176950068362952
vt 0.14052684198223425 0.611912152122591
vt 0.14333309198223426 0.652352777122591
vt 0.09905937499999999 0.6176950068362952
vt 0.09625312499999998 0.5772543818362952
vt 0.1321618839138589 0.5722467179768835
vt 0.14052684198223425 0.611912152122591
vt 0.09625312499999998 0.5772543818362952
vt 0.09825658120170112 0.5361430182017902
vt 0.11898721964378241 0.533252022465681
vt 0.1321618839138589 0.5722467179768835
vt 0.12557908675154233 0.7328755305457453
vt 0.13477904131590462 0.7516765428210503
vt 0.0938542058887963 0.7600509862231727
vt 0.11915572016366352 0.991777966750422
vt 0.09990694368812272 1
vt 0.0936457941112037 0.9586990137768273
vt 0.43645516697645875 0.704497434356995
vt 0.41452989444662225 0.6696629617596809
vt 0.4482731013983276 0.6563997928820375
vt 0.45593560139832756 0.6968404178820375
vt 0.20041690801776574 0.746102777122591
vt 0.20322315801776572 0.705662152122591
vt 0.244690625 0.7114450068362952
vt 0.23632566693162466 0.7511104409820025
vt 0.20322315801776572 0.705662152122591
vt 0.21158811608614106 0.6659967179768835
vt 0.247496875 0.6710043818362952
vt 0.244690625 0.7114450068362952
vt 0.21158811608614106 0.6659967179768835
vt 0.22476278035621755 0.627002022465681
vt 0.24549341879829883 0.6298930182017902
vt 0.24749687499999998 0.6710043818362952
vt 0.10841384379806099 0.7208975649041824
vt 0.12557908675154233 0.7328755305457453
vt 0.09385420588879628 0.7600509862231727
vt 0.09990694368812272 1
vt 0.07908615620193903 0.9978524350958176
vt 0.0936457941112037 0.9586990137768273
vt 0.45593560139832756 0.6968404178820375
vt 0.4482731013983276 0.6563997928820375
vt 0.4845293513983276 0.6563997928820375
vt 0.47686685139832763 0.6968404178820375
vt 0.2600513864893776 0.7610297787099394
vt 0.2462880650305627 0.7228998669361828
vt 0.286559375 0.7114450068362952
vt 0.2949243330683753 0.7511104409820025
vt 0.244690625 0.7114450068362952
vt 0.247496875 0.6710043818362952
vt 0.283753125 0.6710043818362952
vt 0.286559375 0.7114450068362952
vt 0.24850143253707063 0.6625288970382703
vt 0.2654052765889877 0.625
vt 0.2857565812017011 0.6298930182017902
vt 0.283753125 0.6710043818362952
vt 0.08759305631187729 0.71875
vt 0.10841384379806099 0.7208975649041824
vt 0.0938542058887963 0.7600509862231727
vt 0.07908615620193903 0.9978524350958176
vt 0.061920913248457665 0.9858744694542547
vt 0.0936457941112037 0.9586990137768273
vt 0.47686685139832763 0.6968404178820375
vt 0.4845293513983276 0.6563997928820375
vt 0.5182725583500329 0.6696629617596809
vt 0.49634728582019644 0.704497434356995
vt 0.2949243330683753 0.7511104409820025
vt 0.286559375 0.7114450068362952
vt 0.32802684198223425 0.705662152122591
vt 0.33083309198223426 0.746102777122591
vt 0.286559375 0.7114450068362952
vt 0.283753125 0.6710043818362952
vt 0.3196618839138589 0.6659967179768835
vt 0.32802684198223425 0.705662152122591
vt 0.283753125 0.6710043818362952
vt 0.2857565812017011 0.6298930182017902
vt 0.3064872196437824 0.627002022465681
vt 0.3196618839138589 0.6659967179768835
vt 0.06834427983633648 0.726972033249578
vt 0.08759305631187729 0.71875
vt 0.0938542058887963 0.7600509862231727
vt 0.061920913248457665 0.9858744694542547
vt 0.0527209586840954 0.9670734571789497
vt 0.0936457941112037 0.9586990137768273
vt 0.25601278035621755 0.997997977534319
vt 0.24283811608614106 0.9590032820231165
vt 0.27874687499999995 0.9539956181637048
vt 0.27674341879829883 0.9951069817982098
vt 0.24283811608614106 0.9590032820231165
vt 0.23447315801776572 0.919337847877409
vt 0.275940625 0.9135549931637048
vt 0.278746875 0.9539956181637048
vt 0.23447315801776572 0.919337847877409
vt 0.23166690801776574 0.878897222877409
vt 0.26757566693162466 0.8738895590179975
vt 0.275940625 0.9135549931637048
vt 0.38687527152414736 0.597334472597314
vt 0.4088005440539838 0.5625
vt 0.42828097847585267 0.5701570164749573
vt 0.42061847847585265 0.6105976414749573
vt 0.04208810371245998 0.7586826569414795
vt 0.04606505048758123 0.7381326904959995
vt 0.08378053585949452 0.7560914103889163
vt 0.0527209586840954 0.9670734571789497
vt 0.053796160640082615 0.9461698410488075
vt 0.0936457941112037 0.9586990137768273
vt 0.27674341879829883 0.9951069817982098
vt 0.27874687499999995 0.9539956181637048
vt 0.3139985674629293 0.9624711029617297
vt 0.29709472341101223 1
vt 0.278746875 0.9539956181637048
vt 0.275940625 0.9135549931637048
vt 0.317809375 0.9135549931637048
vt 0.315003125 0.9539956181637048
vt 0.27753806503056266 0.9021001330638171
vt 0.2913013864893776 0.8639702212900606
vt 0.3261743330683753 0.8738895590179975
vt 0.317809375 0.9135549931637048
vt 0.42061847847585265 0.6105976414749573
vt 0.42828097847585267 0.5701570164749573
vt 0.4492122284758526 0.5701570164749573
vt 0.45687472847585264 0.6105976414749573
vt 0.04857903693133045 0.7785820291052103
vt 0.04208810371245998 0.7586826569414795
vt 0.08378053585949452 0.7560914103889163
vt 0.053796160640082615 0.9461698410488075
vt 0.06487656400790259 0.928411972714773
vt 0.0936457941112037 0.9586990137768273
vt 0.053796160640082615 0.9461698410488075
vt 0.01543042114043576 0.9312625244128108
vt 0.03462343993312721 0.9005030755606955
vt 0.06487656400790259 0.928411972714773
vt 0.315003125 0.9539956181637048
vt 0.317809375 0.9135549931637048
vt 0.35927684198223425 0.919337847877409
vt 0.3509118839138589 0.9590032820231165
vt 0.317809375 0.9135549931637048
vt 0.3261743330683753 0.8738895590179975
vt 0.36208309198223426 0.878897222877409
vt 0.35927684198223425 0.919337847877409
vt 0.015430421140435774 0.8029813595834893
vt 0.04857903693133045 0.7785820291052103
vt 0.06390814646692747 0.7928345947482154
vt 0.04198287393709098 0.8276690673455295
vt 0.06390814646692747 0.7928345947482154
vt 0.04857903693133045 0.7785820291052103
vt 0.08378053585949455 0.7560914103889164
vt 0.06487656400790258 0.928411972714773
vt 0.0831801691112037 0.9182583887768273
vt 0.0936457941112037 0.9586990137768273
vt 0.06487656400790258 0.928411972714773
vt 0.038558563193592355 0.8967651578706439
vt 0.07026331482221278 0.8791775375589022
vt 0.0831801691112037 0.9182583887768273
vt 0.38791690801776574 0.8301060591457075
vt 0.3907231580177657 0.7896654341457074
vt 0.432190625 0.7954482888594117
vt 0.42382566693162466 0.835113723005119
vt 0.3907231580177657 0.7896654341457074
vt 0.39908811608614103 0.75
vt 0.434996875 0.7550076638594116
vt 0.432190625 0.7954482888594117
vt 0.041982873937090985 0.8276690673455294
vt 0.06390814646692747 0.7928345947482154
vt 0.0833885808887963 0.8004916112231727
vt 0.07572608088879632 0.8409322362231727
vt 0.08338858088879632 0.8004916112231727
vt 0.06390814646692747 0.7928345947482154
vt 0.0884422499427801 0.759025554187037
vt 0.0831801691112037 0.9182583887768273
vt 0.10411141911120371 0.9182583887768273
vt 0.0936457941112037 0.9586990137768273
vt 0.0831801691112037 0.9182583887768273
vt 0.07551766911120371 0.8778177637768273
vt 0.1117739191112037 0.8778177637768273
vt 0.10411141911120371 0.9182583887768273
vt 0.4475513864893776 0.8450330607330558
vt 0.43378806503056266 0.8069031489592993
vt 0.474059375 0.7954482888594117
vt 0.4824243330683753 0.835113723005119
vt 0.432190625 0.7954482888594117
vt 0.434996875 0.7550076638594116
vt 0.471253125 0.7550076638594116
vt 0.474059375 0.7954482888594117
vt 0.07572608088879632 0.8409322362231727
vt 0.0833885808887963 0.8004916112231727
vt 0.10431983088879632 0.8004916112231727
vt 0.1119823308887963 0.8409322362231727
vt 0.10431983088879632 0.8004916112231727
vt 0.0833885808887963 0.8004916112231727
vt 0.09385420588879631 0.7600509862231727
vn 0.12940952255125956 0.9659258262890688 0.22414386804201192
vn 0.35355339059327434 0.7071067811865465 0.6123724356957955
vn 0.48296291314453416 0.25881904510252124 0.8365163037378077
vn 0.48296291314453405 -0.25881904510252096 0.8365163037378082
vn 0.353553390593274 -0.7071067811865472 0.6123724356957947
vn 0.1294095225512602 -0.9659258262890685 0.22414386804201303
vn 0.22414386804201186 0.9659258262890688 0.12940952255125956
vn 0.6123724356957955 0.7071067811865465 0.3535533905932743
vn 0.8365163037378077 0.2588190451025212 0.48296291314453427
vn 0.8365163037378079 -0.25881904510252074 0.48296291314453416
vn 0.6123724356957946 -0.7071067811865474 0.353553390593274
vn 0.224143868042013 -0.9659258262890684 0.1294095225512602
vn 0.2588190451025191 0.9659258262890688 0
vn 0.7071067811865487 0.7071067811865465 0
vn 0.9659258262890682 0.25881904510252124 0
vn 0.9659258262890682 -0.2588190451025209 0
vn 0.7071067811865477 -0.7071067811865474 0
vn 0.25881904510252035 -0.9659258262890684 0
vn 0.2241438680420119 0.9659258262890688 -0.12940952255125956
vn 0.6123724356957955 0.7071067811865465 -0.35355339059327445
vn 0.8365163037378078 0.2588190451025212 -0.48296291314453427
vn 0.8365163037378079 -0.25881904510252096 -0.48296291314453416
vn 0.6123724356957946 -0.7071067811865474 -0.35355339059327406
vn 0.224143868042013 -0.9659258262890684 -0.1294095225512602
vn 0.12940952255125956 0.9659258262890688 -0.2241438680420119
vn 0.35355339059327445 0.7071067811865466 -0.6123724356957955
vn 0.4829629131445343 0.2588190451025212 -0.8365163037378078
vn 0.4829629131445342 -0.2588190451025207 -0.8365163037378078
vn 0.3535533905932739 -0.7071067811865474 -0.6123724356957946
vn 0.1294095225512602 -0.9659258262890684 -0.224143868042013
vn 8.579144739409573e-17 0.9659258262890688 -0.2588190451025191
vn 2.2182585346607316e-16 0.7071067811865466 -0.7071067811865486
vn 3.201780405296398e-16 0.2588190451025209 -0.9659258262890682
vn 3.69709755776789e-16 -0.2588190451025207 -0.9659258262890684
vn 2.5614243242371174e-16 -0.7071067811865474 -0.7071067811865478
vn 8.579144739409616e-17 -0.9659258262890684 -0.25881904510252035
vn -0.12940952255125945 0.9659258262890688 -0.224143868042012
vn -0.35355339059327423 0.7071067811865465 -0.6123724356957955
vn -0.48296291314453377 0.25881904510252096 -0.8365163037378082
vn -0.482962913144534 -0.2588190451025207 -0.8365163037378083
vn -0.35355339059327356 -0.7071067811865474 -0.6123724356957949
vn -0.1294095225512601 -0.9659258262890684 -0.22414386804201308
vn -0.22414386804201195 0.9659258262890688 -0.12940952255125954
vn -0.6123724356957957 0.7071067811865465 -0.35355339059327423
vn -0.8365163037378079 0.2588190451025212 -0.4829629131445341
vn -0.836516303737808 -0.25881904510252074 -0.48296291314453405
vn -0.6123724356957947 -0.7071067811865475 -0.3535533905932739
vn -0.22414386804201303 -0.9659258262890684 -0.12940952255126018
vn -0.2588190451025191 0.9659258262890688 0
vn -0.7071067811865486 0.7071067811865465 -2.9576780462143115e-16
vn -0.9659258262890683 0.2588190451025213 0
vn -0.9659258262890683 -0.258819045102521 -3.697097557767893e-16
vn -0.7071067811865479 -0.7071067811865472 0
vn -0.25881904510252035 -0.9659258262890684 0
vn -0.224143868042012 0.9659258262890688 0.12940952255125945
vn -0.6123724356957955 0.7071067811865465 0.35355339059327423
vn -0.836516303737808 0.2588190451025209 0.4829629131445338
vn -0.8365163037378083 -0.2588190451025207 0.482962913144534
vn -0.6123724356957949 -0.7071067811865474 0.35355339059327356
vn -0.22414386804201308 -0.9659258262890684 0.1294095225512601
vn -0.1294095225512596 0.9659258262890689 0.22414386804201192
vn -0.3535533905932744 0.7071067811865464 0.6123724356957955
vn -0.4829629131445343 0.2588190451025211 0.8365163037378078
vn -0.48296291314453416 -0.2588190451025206 0.8365163037378079
vn -0.35355339059327395 -0.7071067811865474 0.6123724356957946
vn -0.12940952255126023 -0.9659258262890684 0.224143868042013
vn 0 0.9659258262890688 0.2588190451025191
vn 0 0.7071067811865465 0.7071067811865487
vn 0 0.25881904510252124 0.9659258262890682
vn 0 -0.2588190451025209 0.9659258262890683
vn 0 -0.7071067811865474 0.7071067811865477
vn 0 -0.9659258262890684 0.2588190451025203
usemtl m_ef0691b0-e6cb-b61b-1576-9b8442245344
f 3/1/1 8/2/1 2/3/1
f 3/4/2 4/5/2 9/6/2 8/7/2
f 4/8/3 5/9/3 10/10/3 9/11/3
f 5/12/4 6/13/4 11/14/4 10/15/4
f 6/16/5 7/17/5 12/18/5 11/19/5
f 12/20/6 7/21/6 1/22/6
f 8/23/7 13/24/7 2/25/7
f 8/26/8 9/27/8 14/28/8 13/29/8
f 9/30/9 10/31/9 15/32/9 14/33/9
f 10/34/10 11/35/10 16/36/10 15/37/10
f 11/38/11 12/39/11 17/40/11 16/41/11
f 17/42/12 12/43/12 1/44/12
f 13/45/13 18/46/13 2/47/13
f 13/48/14 14/49/14 19/50/14 18/51/14
f 14/52/15 15/53/15 20/54/15 19/55/15
f 15/56/16 16/57/16 21/58/16 20/59/16
f 16/60/17 17/61/17 22/62/17 21/63/17
f 22/64/18 17/65/18 1/66/18
f 18/67/19 23/68/19 2/69/19
f 18/70/20 19/71/20 24/72/20 23/73/20
f 19/74/21 20/75/21 25/76/21 24/77/21
f 20/78/22 21/79/22 26/80/22 25/81/22
f 21/82/23 22/83/23 27/84/23 26/85/23
f 27/86/24 22/87/24 1/88/24
f 23/89/25 28/90/25 2/91/25
f 23/92/26 24/93/26 29/94/26 28/95/26
f 24/96/27 25/97/27 30/98/27 29/99/27
f 25/100/28 26/101/28 31/102/28 30/103/28
f 26/104/29 27/105/29 32/106/29 31/107/29
f 32/108/30 27/109/30 1/110/30
f 28/111/31 33/112/31 2/113/31
f 28/114/32 29/115/32 34/116/32 33/117/32
f 29/118/33 30/119/33 35/120/33 34/121/33
f 30/122/34 31/123/34 36/124/34 35/125/34
f 31/126/35 32/127/35 37/128/35 36/129/35
f 37/130/36 32/131/36 1/132/36
f 33/133/37 38/134/37 2/135/37
f 33/136/38 34/137/38 39/138/38 38/139/38
f 34/140/39 35/141/39 40/142/39 39/143/39
f 35/144/40 36/145/40 41/146/40 40/147/40
f 36/148/41 37/149/41 42/150/41 41/151/41
f 42/152/42 37/153/42 1/154/42
f 38/155/43 43/156/43 2/157/43
f 38/158/44 39/159/44 44/160/44 43/161/44
f 39/162/45 40/163/45 45/164/45 44/165/45
f 40/166/46 41/167/46 46/168/46 45/169/46
f 41/170/47 42/171/47 47/172/47 46/173/47
f 47/174/48 42/175/48 1/176/48
f 43/177/49 48/178/49 2/179/49
f 43/180/50 44/181/50 49/182/50 48/183/50
f 44/184/51 45/185/51 50/186/51 49/187/51
f 45/188/52 46/189/52 51/190/52 50/191/52
f 46/192/53 47/193/53 52/194/53 51/195/53
f 52/196/54 47/197/54 1/198/54
f 48/199/55 53/200/55 2/201/55
f 48/202/56 49/203/56 54/204/56 53/205/56
f 49/206/57 50/207/57 55/208/57 54/209/57
f 50/210/58 51/211/58 56/212/58 55/213/58
f 51/214/59 52/215/59 57/216/59 56/217/59
f 57/218/60 52/219/60 1/220/60
f 53/221/61 58/222/61 2/223/61
f 53/224/62 54/225/62 59/226/62 58/227/62
f 54/228/63 55/229/63 60/230/63 59/231/63
f 55/232/64 56/233/64 61/234/64 60/235/64
f 56/236/65 57/237/65 62/238/65 61/239/65
f 62/240/66 57/241/66 1/242/66
f 58/243/67 3/244/67 2/245/67
f 58/246/68 59/247/68 4/248/68 3/249/68
f 59/250/69 60/251/69 5/252/69 4/253/69
f 60/254/70 61/255/70 6/256/70 5/257/70
f 61/258/71 62/259/71 7/260/71 6/261/71
f 7/262/72 62/263/72 1/264/72